# xmcd
#
# Track frame offsets:
# 182
# 17120
# 46582
# 68972
# 87370
# 108495
# 135022
# 159257
# 177507
# 200492
# 227230
# 248410
#
# Disc length: 3472 seconds
#
#
# Revision: 0
# Processed by: cddbd v1.5.2PL0 Copyright (c) Steve Scherf et al.
# Submitted via: Nero 7, 11, 10, 0 
#
DISCID=900d8e0c
DTITLE=Michael Coleman and Eddie Lusk - Chicago Blues Festival 91
DYEAR=1991
DGENRE=Blues
TTITLE0=I'm A Blues Piano Man
TTITLE1=Seven Years Old Blues
TTITLE2=Help Me
TTITLE3=Woman Loves A Woman
TTITLE4=Lottery Blues
TTITLE5=I Fell In Love With A Woman In The Welfare Line
TTITLE6=Killing Floor
TTITLE7=Meet Me With Your Black Drawers On
TTITLE8=Call My Job
TTITLE9=Tin Pan Alley
TTITLE10=Kansas City
TTITLE11=This Little Light Of Mine
EXTD=
EXTT0=I'm A Blues Piano Man
EXTT1=Seven Years Old Blues
EXTT2=Help Me
EXTT3=Woman Loves A Woman
EXTT4=Lottery Blues
EXTT5=I Fell In Love With A Woman In The Welfare Line
EXTT6=Killing Floor
EXTT7=Meet Me With Your Black Drawers On
EXTT8=Call My Job
EXTT9=Tin Pan Alley
EXTT10=Kansas City
EXTT11=This Little Light Of Mine
PLAYORDER=
